<?xml version="1.0" encoding="utf-8"?>
<!-- Generator: Adobe Illustrator 24.0.3, SVG Export Plug-In . SVG Version: 6.00 Build 0)  -->
<svg version="1.1" id="Layer_1" xmlns="http://www.w3.org/2000/svg" xmlns:xlink="http://www.w3.org/1999/xlink" x="0px" y="0px"
	 viewBox="0 0 329.9 228.6" style="enable-background:new 0 0 329.9 228.6;" xml:space="preserve">
<style type="text/css">
	.st0{fill:#BDA833;}
	.st1{fill:#1D3963;}
</style>
<g>
	<path class="st0" d="M99.7,103.9c7.2-0.2,14.5,0,21.7-0.3c8.2-0.3,16.3-0.1,24.5-0.2c7.6-0.1,15.2-0.3,22.9-0.1
		c12.6,0.2,25.3,0.1,37.9,0.2c9.9,0.1,19.9,0.3,29.9,0.6c9,0.2,18.1,0.5,27.1,0.9c8.7,0.3,17.5,0.7,26.2,1.2
		c8.5,0.5,17,0.9,25.5,1.7c3.1,0.3,6.3,0.4,9.4,0.6c0.3,0,0.7,0.1,1,0.1c0.3,0.1,0.8-0.1,0.7,0.5c-0.1,0.4-0.5,0.3-0.7,0.3
		c-0.2,0-0.5,0-0.7,0c-12.8,0.1-25.6,0.1-38.3,0.2c-26.9,0-53.9,0-80.8,0.1c-12.3,0-24.7,0.1-37,0.1c-13.7,0-27.4,0-41.1,0
		c-20.3,0-40.6-0.1-60.9-0.1c-16.8,0-33.6,0-50.5-0.1c-3.6,0-7.2-0.1-10.8-0.1c-0.4,0-1,0.2-1-0.4c0-0.4,0.6-0.4,1-0.4
		c4.2-0.3,8.5-0.7,12.8-0.9c5.6-0.4,11.2-0.8,16.8-1.1c5.3-0.3,10.7-0.5,16-0.7c7.6-0.3,15.1-0.6,22.7-0.9
		C82.5,104.4,91.1,104.2,99.7,103.9z"/>
	<g>
		<path class="st0" d="M159.4,41c-2.3,2-4.2,4.5-6.3,6.8c-2.9,3.1-5.6,6.3-8.5,9.3c-4.4,4.5-13.2,4.5-17.7-0.9
			C122.4,51,117.6,46,112.9,41c-1.1-1.6-2.4-3-3.9-4.2c-2.4-1.9-5.2-2.7-8.2-2.3c-6,0.9-8.5,3.5-9.8,9.4C91,37.9,91,32,91,26.1
			c0-4.1,0.1-8.2,0-12.4c-0.1-5.4,3.8-9,8.4-9.9c4.8-1,8.7,0.6,12,4.3c6.1,7,12.5,13.8,18.7,20.7c1.8,1.9,3.5,3.9,5.3,5.8
			c0.5,0.5,0.7,0.7,1.3,0c5.6-6.2,11.2-12.4,16.9-18.6c3.1-3.4,5.9-7.2,9.5-10.2c5.9-4.8,15.9-2,17.7,5.3c0.1,0.3,0.2,0.7,0.2,1
			c0,10.4,0,20.9,0,31.3c-0.1-0.1-0.2-0.3-0.2-0.4c-0.4-5.2-5.9-9-11.5-8.6C164.8,34.7,161.8,37.4,159.4,41z"/>
		<path class="st1" d="M210.9,45.4c3.8,0,7.7-0.1,11.5,0c1.3,0,1.5-0.4,1.5-1.5c0-12.2,0-24.5-0.1-36.7c0-1.3,0.3-1.7,1.7-1.7
			c4.4,0.1,8.8,0.1,13.3,0c0.9,0,1.4,0.1,1.4,1.2c-0.1,17.9,0,35.8-0.1,53.8c0,3.8,0.1,7.7-0.2,11.5c-0.6,8.2-8.1,15.3-16.4,15.4
			c-5.2,0-10.4,0-15.6,0c-1,0-1.3-0.2-1.3-1.3c0.1-4.5,0.1-9,0-13.6c0-1,0.3-1.2,1.2-1.2c4.9,0.1,9.7,0,14.6,0.1
			c1.2,0,1.6-0.2,1.6-1.5c-0.1-2.8,0-5.6,0-8.5c-1-0.2-2.4-0.6-4.1-1c-4.1-1.2-6.1-1.8-7.4-2.8C208.8,54.5,210.5,47,210.9,45.4z"/>
		<path class="st1" d="M91.1,43.8c1.2-5.9,3.8-8.5,9.8-9.4c3-0.5,5.8,0.4,8.2,2.3c1.5,1.2,2.8,2.6,3.9,4.2c0,7.2,0,14.4-0.1,21.5
			c0,7.8,0,15.5,0,23.3c0,1.1-0.3,1.4-1.4,1.4c-6.8,0-12.6-2.3-17-7.7c-2.2-2.8-3.4-6-3.4-9.5C91,61.3,91.1,52.6,91.1,43.8z"/>
		<path class="st1" d="M159.4,41c2.4-3.5,5.4-6.3,10-6.6c5.5-0.4,11.1,3.4,11.5,8.6c0,0.1,0.1,0.3,0.2,0.4c0,9.1,0.3,18.2-0.1,27.2
			c-0.3,7.8-5.2,12.5-12.1,15.3c-2.8,1.1-5.6,1.4-8.6,1.3c-0.7,0-0.9-0.3-0.9-0.9c0-1.1,0-2.1,0-3.2C159.4,69,159.4,55,159.4,41z"/>
		<path class="st0" d="M210.9,45.4c0.2,7.8,8.1,12.9,10,14.2c0.7,0.5,1.7,1.1,3,1.8c-1.4,0-3.4,0-5.8,0c-7.1-0.2-10.7-0.3-13.6-1.8
			c-5.5-2.7-7.8-7.8-8.1-8.5c-0.9-2.1-1.4-4.4-1.4-6.8c0-12.4,0-24.8,0-37.1c0-1.3,0.3-1.8,1.7-1.7c4.3,0.1,8.6,0.1,12.8,0
			c1.2,0,1.4,0.3,1.4,1.5c0,12.2,0,24.5,0,36.7C210.8,44.2,210.8,44.8,210.9,45.4z"/>
	</g>
	<g>
		<path class="st1" d="M279.4,159.8c0-8.1,0-16.2,0-24.3c0-3.2,1.4-4.6,4.6-4.6c2.1,0,4.2,0.1,6.3,0c2.9-0.2,4.7,1.1,5.9,3.6
			c1.7,3.6,3.6,7.2,5.3,10.8c4.1,8.6,8.5,16.9,12.3,25.7c0.1,0.3,0.2,0.9,0.7,0.7c0.5-0.1,0.3-0.7,0.3-1
			c-0.8-12.8-0.2-25.5-0.4-38.3c0-1.2,0.3-1.6,1.5-1.5c2.9,0.1,5.8,0.1,8.7,0c1.1,0,1.4,0.3,1.4,1.4c0,10.3,0,20.6,0,30.9
			c0,5.8,0,11.6,0,17.3c0,0.7,0,1.5-0.1,2.2c-0.2,1.9-1.4,3.2-3.3,3.2c-3.1,0.1-6.3,0.1-9.5,0c-1.8-0.1-2.8-1.4-3.6-2.9
			c-3-6.1-6.1-12.3-9.1-18.5c-2.7-5.6-5.7-11-8-16.8c-0.4-0.9-0.6-1.8-0.9-2.8c-0.1-0.3-0.2-0.5-0.6-0.5c-0.5,0.1-0.3,0.4-0.3,0.7
			c1.1,13.1,0.2,26.2,0.6,39.3c0,1.2-0.3,1.5-1.5,1.5c-2.9-0.1-5.7-0.1-8.6,0c-1.2,0-1.6-0.2-1.6-1.6
			C279.4,176.2,279.4,168,279.4,159.8z"/>
		<path class="st1" d="M270.2,158.4c-0.1,5.4-0.4,10.8-1.9,16c-1.8,6.2-5.8,10-12.1,11.5c-6.4,1.5-12.7,1.5-19.1,0.1
			c-6.9-1.4-11-5.9-12.6-12.6c-2.3-9.7-2.2-19.6-0.2-29.3c1.6-7.9,6.5-12.6,14.6-13.7c5.4-0.8,10.8-0.8,16.2,0.2
			c7.2,1.3,11.5,5.8,13.4,12.7C269.9,148.2,270.1,153.3,270.2,158.4z M235.8,158.3c0.1,3.4,0.1,6.7,0.7,10c1,5.7,3.3,8.2,8.9,8.6
			c6.9,0.5,10.1-2.1,11.1-7.9c1.2-7.2,1.3-14.4-0.1-21.6c-1-5.2-3.5-7.4-8.7-7.8c-6.6-0.5-10.2,2.3-11.2,8.8
			C235.9,151.7,235.8,155,235.8,158.3z"/>
		<path class="st1" d="M141.6,185.9c-1.5,0-3-0.1-4.5,0c-1.2,0.1-1.8-0.3-2.1-1.5c-1-3.9-2.2-7.8-3.2-11.8c-0.2-0.9-0.6-1.1-1.5-1.1
			c-5.5,0-11.1,0.1-16.6,0c-1,0-1.3,0.4-1.5,1.2c-1,4-2.2,7.9-3.2,11.9c-0.2,0.9-0.6,1.3-1.7,1.3c-3.2-0.1-6.4-0.1-9.6,0
			c-1.3,0-1.6-0.2-1.2-1.5c4.7-15.2,9.3-30.4,14-45.6c0.5-1.6,1-3.2,1.5-4.9c0.7-2,1.9-3.1,4.1-3.1c3.9-0.1,7.9-0.1,11.8,0
			c2.2,0,3.5,1.1,4.1,3.2c5.2,16.9,10.3,33.8,15.5,50.6c0.4,1.2,0,1.3-1,1.2C144.9,185.9,143.3,185.9,141.6,185.9z M115.2,161.9
			c4.6,0,9.1,0,13.6,0c-0.1-0.3-0.1-0.6-0.2-0.9c-1.7-6.7-4-13.3-5.3-20.2c-0.1-0.6-0.4-0.9-1.1-0.9c-0.6,0-1.2-0.1-1.4,0.8
			c-0.6,2.5-1.2,5.1-1.9,7.6C117.8,152.9,116.5,157.3,115.2,161.9z"/>
		<path class="st1" d="M17.7,176.1c3.4,0.2,6.9,0.6,10.3,0.2c3-0.3,4.2-1.2,4.6-3.4c0.6-3.5-0.1-5.7-2.8-6.9
			c-4.2-1.9-8.6-3.2-13-4.7c-5.1-1.8-9.4-4.6-11-10.3c-0.9-3.2-0.9-6.4-0.5-9.7c0.1-1,0.3-1.9,0.5-2.9c1.2-4.6,4.4-6.8,8.8-7.8
			c5.6-1.2,11.3-1,17-0.7c3.5,0.2,7,0.7,10.5,1.6c0.8,0.2,1.1,0.4,1,1.4c-0.3,2.1-0.4,4.1-0.5,6.2c0,1.1-0.5,1.2-1.5,1.2
			c-6.1-0.3-12.1-0.4-18.2-0.2c-0.5,0-1.1,0.1-1.6,0.1c-2.7,0.4-3.6,1.1-3.9,2.9c-0.6,3.2,0.1,5.4,2.3,6.6c3.3,1.8,7.1,2.6,10.6,4
			c1.9,0.7,3.8,1.3,5.7,2.1c5.3,2.2,8.2,6.2,8.9,11.9c0.4,3.3,0.2,6.5-0.5,9.7c-1.3,5.3-5,7.6-10,8.6c-5.9,1.1-11.9,1-17.8,0.4
			c-3.3-0.3-6.6-0.8-9.9-1.5c-0.8-0.1-1-0.4-0.9-1.1c0.2-2.4,0.4-4.7,0.6-7.1c0.1-1,0.7-0.7,1.2-0.7C11,176.1,14.4,176.1,17.7,176.1
			z"/>
		<path class="st1" d="M72.2,130.8c7.1,0,14.1,0,21.1,0c1.2,0,1.5,0.4,1.5,1.5c-0.1,2.4-0.1,4.8,0,7.1c0,1-0.2,1.3-1.3,1.3
			c-4.5-0.1-9,0-13.6-0.1c-1.3,0-1.7,0.3-1.7,1.7c0.1,14,0,28,0.1,42c0,1.3-0.3,1.7-1.6,1.6c-3.2-0.1-6.3-0.1-9.5,0
			c-1.1,0-1.3-0.3-1.3-1.4c0-14,0-28.1,0.1-42.1c0-1.4-0.4-1.8-1.8-1.7c-4.5,0.1-8.9,0-13.4,0.1c-1,0-1.3-0.3-1.3-1.3
			c0.1-2.4,0.1-4.8,0-7.1c0-1.2,0.2-1.6,1.5-1.5C58.1,130.8,65.1,130.8,72.2,130.8z"/>
		<path class="st1" d="M165.8,163.4c0-7.1,0-14.2,0-21.3c0-1.2-0.4-1.4-1.5-1.4c-4.6,0.1-9.1,0-13.7,0.1c-1,0-1.3-0.3-1.3-1.3
			c0.1-2.5,0.1-5.1,0-7.6c0-0.8,0.2-1.1,1.1-1.1c14.4,0,28.8,0,43.2,0c0.8,0,1,0.3,1,1c0,2.6-0.1,5.1,0,7.7c0,0.9-0.2,1.2-1.2,1.2
			c-4.6-0.1-9.1,0-13.7-0.1c-1.2,0-1.5,0.3-1.5,1.5c0,14,0,28.1,0.1,42.1c0,1.2-0.2,1.7-1.6,1.6c-3.2-0.1-6.3-0.1-9.5,0
			c-1.1,0-1.4-0.3-1.4-1.4C165.8,177.5,165.8,170.4,165.8,163.4z"/>
		<path class="st1" d="M213.6,158.3c0,8.7,0,17.5,0,26.2c0,1.1-0.2,1.4-1.3,1.4c-3.1-0.1-6.2-0.1-9.3,0c-1.2,0-1.5-0.2-1.5-1.5
			c0.1-15.6,0-31.3,0-46.9c0-1.9,0.1-3.7,0-5.5c0-1,0.3-1.2,1.2-1.2c3.2,0.1,6.3,0.1,9.5,0c1.1,0,1.5,0.3,1.5,1.4
			C213.6,140.9,213.6,149.6,213.6,158.3z"/>
	</g>
	<g>
		<path class="st1" d="M16,216.9c-1.7,0-1.7-0.3-1.9-1.2c-0.6,0.5-1.3,0.7-2.2,0.7c-1.7,0-5.2-0.9-5.2-1.7c0-0.2,0.3-1.2,1-3
			c0.3-0.9,1.1-1.5,2.6-2.3c0.7-0.4,2.2-0.9,2.2-1.5c0-0.1,0-0.2-0.1-0.3l2.7-2.3l1.3,6.2c0.2,1.2,0.4,1.6,2,1.6h1.7v3.9L16,216.9
			L16,216.9z M12.9,209.8c-0.2,0.5-0.7,0.9-1.6,1.4c-0.8,0.4-1.2,0.6-1.2,0.9c0,0.3,1.7,0.6,2.6,0.6c0.2,0,0.6-0.1,0.8-0.1
			L12.9,209.8z M15.5,204.1l-1.4-1.2l-1.3,1.2l-2.4-2.3l1.8-1.7l1.4,1.2l1.4-1.2l2.5,2.3L15.5,204.1z"/>
		<path class="st1" d="M27.8,216.9c-1.7,0-2-0.2-2.6-1.2l-0.9,1.2h-4.4V213h4.4l-0.7-2.4l2.4-2.3l1,3.4c0.4,1.2,0.4,1.3,1.7,1.3h1.9
			v3.9H27.8z M26.9,223.1l-1.4-1.2l-1.4,1.2l-2.5-2.2l2-1.7l1.4,1.2l1.3-1.2l2.4,2.2L26.9,223.1z"/>
		<path class="st1" d="M37.6,205.7l-0.5-0.2c0.3,2,0.5,4.1,0.5,6.3c0,2.2-0.5,3.9-1.6,5.1h-5.5v-3.9h4.4c0-2.3-0.2-5.1-0.6-8.6h0
			c-0.5-0.2-0.8-0.5-0.8-0.8c0-0.3,0.9-1.7,1.8-3.1c0,0.8,0.3,1.1,1.2,1.6l2.3,1L37.6,205.7z"/>
		<path class="st1" d="M43.3,222.9c-1.2,0-3.5-2.6-4.2-3.9c-0.2-0.3-0.2-0.5-0.2-0.6c0-0.1,0-0.1,0.1-0.1s0.2,0.1,0.4,0.3
			c0.5,0.4,1.3,1,2.6,1c1.5,0,2.9-1.1,3.5-2.7h-1.3c-2.6,0-4.1-0.6-4.1-2.7c0-2.8,2.4-6.9,4.2-6.9c1.9,0,3.9,3.6,3.9,7.5
			C48.2,218.7,45.3,222.9,43.3,222.9z M44,210.6c-0.7,0-1.3,0.6-1.3,1.4c0,0.6,0.3,0.9,1.1,0.9h1.7C45.2,211.4,44.7,210.6,44,210.6z
			"/>
		<path class="st1" d="M50.5,222.9c-0.7,0-1.5-0.5-2.5-1.6c-0.8-0.9-1.9-2.4-1.9-2.7c0-0.1,0-0.1,0.1-0.1c0.2,0,1.2,1.1,2.8,1.1
			c2.1,0,3.7-1.5,3.7-3.8c0-1.3-0.5-2.5-1.4-3.6l2.2-2.5c0.8,1.1,1.2,2.2,1.5,3.3h3.4v3.9h-3.4C54.2,219.9,52.2,222.9,50.5,222.9z"
			/>
		<path class="st1" d="M65.9,216.9c-1.7,0-2-0.2-2.6-1.2l-0.8,1.2H58V213h4.4l-0.7-2.4l2.4-2.3l1,3.4c0.3,1.2,0.4,1.3,1.7,1.3h1.9
			v3.9H65.9z M64.5,206.8l-1.4-1.2l-1.3,1.2l-2.5-2.3l1.8-1.7l1.4,1.2l1.3-1.2l2.5,2.2L64.5,206.8z"/>
		<path class="st1" d="M76.3,216.9c-1.7,0-2-0.2-2.6-1.2l-0.8,1.2h-4.4V213h4.4l-0.7-2.4l2.4-2.3l1,3.4c0.3,1.2,0.4,1.3,1.7,1.3h1.9
			v3.9H76.3z M74.3,223.1l-2.5-2.2l1.8-1.7l2.6,2.2L74.3,223.1z"/>
		<path class="st1" d="M86.2,205.7l-0.5-0.2c0.3,2,0.5,4.1,0.5,6.3c0,2.2-0.6,3.9-1.6,5.1H79v-3.9h4.4c0-2.3-0.2-5.1-0.6-8.6h0
			c-0.5-0.2-0.8-0.5-0.8-0.8c0-0.3,0.9-1.7,1.8-3.1c0,0.8,0.3,1.1,1.2,1.6l2.3,1L86.2,205.7z"/>
		<path class="st1" d="M88.8,217.8c0.3-2.3,0.3-5.4,0.3-7.3c0-1.4-0.1-3-0.3-6.2l2.4-3.9c0.5,2.4,0.7,5.4,0.7,8.9
			C91.9,212.1,90.9,215,88.8,217.8z"/>
		<path class="st1" d="M115.4,216.9h-11.1c-3.1,0-4.4-1.1-4.4-3.8c0-1.3,0.3-2.6,0.8-3.9c0.3-0.8,0.6-1.2,0.8-1.2
			c0.2,0,0.2,0.2,0.2,0.6c0,0.4-0.2,1.2-0.2,1.5c0,2.1,0.7,2.9,3.7,2.9h8.8c-0.1-1.1-0.3-1.9-0.8-2.7l2-2.8c1,1.3,1.5,2.8,1.5,4.6
			C116.9,214,116.4,215.6,115.4,216.9z M110,208.1l-1.4-1.2l-1.3,1.2l-2.4-2.3l1.8-1.7l1.4,1.2l1.3-1.2l2.5,2.2L110,208.1z"/>
		<path class="st1" d="M122.8,216.9c-2,0-2.8-0.8-2.8-2.8v-9.7l3.1-3.8v10.8c0,1.2,0.3,1.6,1.3,1.6h2.3v3.9L122.8,216.9L122.8,216.9
			z"/>
		<path class="st1" d="M137.1,218l-6.6-2.8c-1,1.4-1.5,1.6-2.7,1.6h-1.3v-3.9c1.3,0,1.6,0,1.6,0c1.4,0,1.8-0.2,3.3-2.3
			c1.8-2.6,2.7-4.1,4.1-4.1c1.9,0,3.9,3.8,3.9,6.1C139.5,214.3,138.7,216.1,137.1,218z M135.2,209.7c-0.4,0-1.2,0.8-2.3,2.3l3.9,1.7
			c0.1-0.3,0.1-0.6,0.1-0.9C136.9,211.4,136.3,209.7,135.2,209.7z"/>
		<path class="st1" d="M151.2,216.9c-1.1,0-1.9-0.4-2.2-1.2l-0.8,1.2h-4.6c-2.3,0-2.9-0.6-2.9-2.1c0-1.2,0.4-2.3,1.3-3.1
			c0.1,0.9,0.5,1.3,2,1.3h3.4l-2.1-3.8l1.7-2.9l3.2,5.5c0.6,0.9,0.8,1.2,2,1.2h1.8v3.9L151.2,216.9L151.2,216.9z"/>
		<path class="st1" d="M171.4,216.9c-2.1,0-3.3-0.9-3.3-2.2c-0.2,0-0.4-0.1-0.6-0.1c-0.8,0-1.7,0.4-2.9,1.1
			c-1.2,0.7-2.2,1.1-3.2,1.1h-7.3V213h6.1c1.1,0,2-0.2,2.9-0.8c-0.3-0.1-0.9-0.4-2-0.9c-1-0.4-1.5-0.6-1.7-0.6
			c-0.6,0-1.1,0.7-1.4,0.7c-0.2,0-0.3-0.1-0.3-0.3c0-0.3,0.6-1,1.7-2.1c0.8-0.8,1.6-1.1,2.5-1.1c0.7,0,1.8,0.4,3.4,1.2
			c1.5,0.8,2.9,1.3,4.2,1.8c1.1,0.3,2.7,0.6,4.1,0.6l-1.6,1.5h4.2v3.9L171.4,216.9L171.4,216.9z M165,206.2l-2.5-2.2l1.9-1.8
			l2.5,2.2L165,206.2z"/>
		<path class="st1" d="M182.3,216.9c-1.3,0-2.2-0.4-2.7-1.1l-0.6,1.1h-3.3V213h3.4v-8.6l3.1-3.8v10.8c0,1.2,0.4,1.6,1.3,1.6h2.3v3.9
			H182.3z"/>
		<path class="st1" d="M192.7,205.7l-0.5-0.2c0.3,2,0.5,4.1,0.5,6.3c0,2.2-0.6,3.9-1.6,5.1h-5.5v-3.9h4.4c0-2.3-0.2-5.1-0.6-8.6h0
			c-0.5-0.2-0.8-0.5-0.8-0.8c0-0.3,0.9-1.7,1.8-3.1c0,0.8,0.3,1.1,1.2,1.6l2.3,1L192.7,205.7z"/>
		<path class="st1" d="M214.1,216.9c-0.7,0-1.1-0.2-1.6-0.5c-0.5,1.2-1.1,2.5-1.5,2.5c-0.2,0-0.7-0.2-1.1-0.5l-4.2-2.4
			c-1-0.6-1.4-1-1.4-2c0-0.1,0-0.5,0.1-1.2c-1.6,0.8-2.6,1.4-2.5,2.4c0,0,0.3,3.5,0.3,4.3c0,1.3-1.1,3.4-2.1,5.2
			c-0.6-2.9-1-5.8-1-8.6c0-2.3,1.3-4.6,4.1-6c1.7-0.8,5.9-2,7.9-2c1.4,0,2,0.5,2,2.1c0,1.9-0.1,3,1.6,3h1.9v3.9L214.1,216.9
			L214.1,216.9z M209.9,211.3c-0.7,0-1.8,0.2-3.2,0.6c0.1,0.5,3.4,2.3,3.8,2.3c0.2,0,0.3-0.5,0.3-1.6
			C210.9,211.7,210.6,211.3,209.9,211.3z"/>
		<path class="st1" d="M229.6,216.9c0.2,0.4,0.3,0.8,0.3,1.2c0,2.8-3.1,5.2-6.4,5.2c-2.9,0-4.6-1.7-4.6-4.8c0-0.5,0.1-1.1,0.2-1.6
			h-2.8V213h4.2l6.1-7.7c0.4-0.4,0.6-0.7,0.8-0.7c0.2,0,0.4,0.2,0.6,0.6c0.8,1.4,1.3,2.2,1.4,2.4c0.5,1,0.8,1.9,0.8,2.6
			c0,0.9-0.3,1.8-0.9,2.7h4.2v3.9L229.6,216.9L229.6,216.9z M223.9,216.9h-1.9c-0.1,0.2-0.1,0.4-0.1,0.7c0,1.4,0.9,2,2.9,2
			c1.1,0,2.4-0.4,2.4-1.1C227.2,217.9,226.4,216.9,223.9,216.9z M226.6,208.8l-3,4.1h0.8c1.6,0,2.7-1,2.8-2.6
			C227.1,209.7,226.9,209.2,226.6,208.8z"/>
		<path class="st1" d="M254.9,216.9h-3.1c-1.7,0-2.1-0.3-2.6-1.3l-1.1,1.3h-3.8c-1.5,0-1.9-0.3-2.5-1.3l-1,1.3h-7.5V213h7.4
			l-1.3-2.9l1.9-2.5l2,4.2c0.4,1,0.8,1.1,1.7,1.1h3l-1.3-2.9l2-2.5l2,4.2c0.4,0.8,0.9,1.1,1.7,1.1h1.2c0-1.1-0.4-2.1-0.8-2.7l2-2.8
			c1,1.3,1.5,2.8,1.5,4.6C256.5,214,256,215.6,254.9,216.9z"/>
		<path class="st1" d="M272.4,216.9c-1.7,0-1.7-0.3-1.9-1.2c-0.5,0.5-1.3,0.7-2.2,0.7c-1.7,0-5.2-0.9-5.2-1.7c0-0.2,0.3-1.2,1-3
			c0.3-0.9,1.1-1.5,2.6-2.3c0.7-0.4,2.2-0.9,2.2-1.5c0-0.1,0-0.2-0.1-0.3l2.7-2.3l1.3,6.2c0.2,1.2,0.4,1.6,2,1.6h1.7v3.9
			L272.4,216.9L272.4,216.9z M269.3,209.8c-0.2,0.5-0.7,0.9-1.6,1.4c-0.8,0.4-1.2,0.6-1.2,0.9c0,0.3,1.7,0.6,2.6,0.6
			c0.2,0,0.5-0.1,0.8-0.1L269.3,209.8z M272,204.1l-1.4-1.2l-1.3,1.2l-2.4-2.3l1.8-1.7l1.4,1.2l1.4-1.2l2.5,2.3L272,204.1z"/>
		<path class="st1" d="M290.8,203.7l-6.8,1.8l5.5,6.1c0.3,0.3,0.8,0.8,0.8,1.1c0,0.1-0.6,1.5-2,4.1h-11.9V213h9.8l-3.6-4.2
			c-0.1,0.2-0.3,0.3-0.4,0.4c-0.3,0-1.9-1.4-1.9-1.8c0-0.6,1.5-4,2-4.3c0.6-0.4,4-1.2,10.2-2.6L290.8,203.7z"/>
		<path class="st1" d="M294.1,222.9c-0.7,0-1.5-0.5-2.5-1.6c-0.8-0.9-1.9-2.4-1.9-2.7c0-0.1,0-0.1,0.1-0.1c0.1,0,1.1,1.1,2.8,1.1
			c2.1,0,3.7-1.5,3.7-3.8c0-1.3-0.5-2.5-1.4-3.6l2.2-2.5c0.8,1.1,1.2,2.2,1.5,3.3h3.4v3.9h-3.4C297.8,219.9,295.8,222.9,294.1,222.9
			z"/>
		<path class="st1" d="M323.2,216.9h-3.1c-1.7,0-2.1-0.3-2.6-1.3l-1.1,1.3h-3.8c-1.5,0-1.9-0.3-2.5-1.3l-1,1.3h-7.5V213h7.4
			l-1.3-2.9l1.9-2.5l2,4.2c0.5,1,0.8,1.1,1.7,1.1h3l-1.3-2.9l2-2.5l2,4.2c0.4,0.8,0.9,1.1,1.7,1.1h1.2c0-1.1-0.4-2.1-0.8-2.7l2-2.8
			c1,1.3,1.5,2.8,1.5,4.6C324.8,214,324.2,215.6,323.2,216.9z M317.9,205.6l-1.4-1.2l-1.3,1.2l-2.5-2.3l1.8-1.7l1.4,1.2l1.3-1.2
			l2.5,2.2L317.9,205.6z M316,201.2l-2.5-2.2l1.9-1.8l2.5,2.2L316,201.2z"/>
	</g>
</g>
</svg>
