<svg id="Full_Fledged_Logo_White" xmlns="http://www.w3.org/2000/svg" width="132.362" height="46.378" viewBox="0 0 132.362 46.378">
  <g id="Group_4" data-name="Group 4" transform="translate(0 3.155)">
    <rect id="Rectangle_4" data-name="Rectangle 4" width="9.996" transform="translate(34.127 3.169)" fill="#0e1694"/>
    <path id="Path_4" data-name="Path 4" d="M13.836,65.755l4.04-18.508,9.256.737,3.951,17.737c-.041-.72-.069-1.444-.069-2.175q0-1.3.089-2.573a37.514,37.514,0,0,1,2.216-10.365q.385-1.048.825-2.066l9.965.793q-.624,1.061-1.153,2.182c-.022.048-.043.1-.065.144-.172.37-.334.744-.489,1.122-.068.165-.132.333-.2.5-.1.258-.2.518-.287.779-.081.231-.16.462-.234.7-.061.189-.117.379-.173.569-.086.291-.172.582-.248.877-.023.088-.042.178-.064.267-.129.517-.24,1.041-.34,1.569,0,.023-.008.047-.012.071A26.52,26.52,0,0,0,40.4,62.2c-.008.264,0,.529,0,.8h0a25.316,25.316,0,0,0,4.684,14.683l-20.077,1.6L22.464,63.511,19.785,79.693,5.066,80.865,0,45.77l10.378.88Z" transform="translate(0 -45.77)" fill="#0e1694"/>
  </g>
  <g id="Group_5" data-name="Group 5" transform="translate(87.276 3.155)">
    <rect id="Rectangle_5" data-name="Rectangle 5" width="9.996" transform="translate(0.962 3.169)" fill="#0e1694"/>
    <path id="Path_5" data-name="Path 5" d="M1297.25,65.755l-4.04-18.508-9.256.737L1280,65.721c.041-.72.069-1.444.069-2.175q0-1.3-.089-2.573a37.513,37.513,0,0,0-2.217-10.365q-.385-1.048-.825-2.066l-9.965.793c.416.707.8,1.435,1.153,2.182.022.048.043.1.065.144.172.37.334.744.489,1.122.068.165.132.333.2.5.1.258.195.518.287.779.081.231.16.462.234.7.061.189.116.379.173.569.086.291.172.582.248.877.023.088.042.178.064.267.129.517.24,1.041.34,1.569,0,.023.008.047.012.071a26.5,26.5,0,0,1,.446,4.089c.008.264,0,.529,0,.8h0A25.317,25.317,0,0,1,1266,77.679l20.077,1.6,2.545-15.766,2.678,16.182,14.719,1.172,5.066-35.1-10.378.88Z" transform="translate(-1266 -45.77)" fill="#0e1694"/>
  </g>
  <g id="Group_6" data-name="Group 6" transform="translate(45.607)">
    <path id="Path_6" data-name="Path 6" d="M702.521,20.48A20.481,20.481,0,1,0,682.04,40.96v5.417l12.734-9.857v-.006A20.436,20.436,0,0,0,702.521,20.48ZM689.916,30.82v0l-7.876,6.1v-3.35a12.673,12.673,0,1,1,7.875-2.749Z" transform="translate(-661.56)" fill="#0e1694"/>
  </g>
  <circle id="Ellipse_2" data-name="Ellipse 2" cx="6.333" cy="6.333" r="6.333" transform="translate(59.76 14.58)" fill="#0e1694"/>
</svg>
